<svg width="188" height="419" viewBox="0 0 188 419" fill="none" xmlns="http://www.w3.org/2000/svg">
<path fill-rule="evenodd" clip-rule="evenodd" d="M-79.6229 259.257C-86.3831 246.595 -99.2235 239.004 -106.118 226.414C-114.622 210.883 -128.71 194.789 -124.304 177.663C-119.911 160.585 -98.253 155.527 -84.9156 144C-71.5228 132.426 -61.3271 118.159 -45.7388 109.765C-24.0971 98.111 1.82775 72.8394 22.5507 86.1319C44.5965 100.273 28.5185 136.744 35.6082 161.944C40.0548 177.749 52.4011 189.638 56.1672 205.618C60.815 225.338 67.4693 246.26 59.9046 265.033C51.8856 284.934 33.0602 297.971 14.5686 308.85C-5.56851 320.698 -30.0375 341.037 -50.7442 330.135C-73.7912 318 -67.3578 282.231 -79.6229 259.257Z" fill="#FFECF2"/>
<path fill-rule="evenodd" clip-rule="evenodd" d="M-87.3973 271.449C-95.2196 256.797 -110.077 248.014 -118.055 233.446C-127.895 215.476 -144.196 196.853 -139.098 177.036C-134.014 157.275 -108.954 151.423 -93.5215 138.086C-78.0247 124.693 -66.2273 108.184 -48.1901 98.4715C-23.1485 84.987 6.84908 55.7454 30.8275 71.1261C56.3368 87.4887 37.733 129.69 45.9364 158.848C51.0816 177.136 65.3674 190.893 69.7251 209.383C75.1031 232.201 82.8029 256.41 74.0497 278.133C64.7709 301.159 42.9881 316.244 21.5915 328.833C-1.70913 342.542 -30.0222 366.077 -53.9818 353.461C-80.6495 339.421 -73.2054 298.032 -87.3973 271.449Z" stroke="#FFD0E0" stroke-width="2"/>
</svg>
