<svg width="1440" height="458" viewBox="0 0 1440 458" fill="none" xmlns="http://www.w3.org/2000/svg">
<path d="M454.485 52.3668C267.277 3.44151 39.3249 302.57 -43.5 457.5L1452 456V418.5C1359.84 298.225 1242.79 165.676 1195.78 131.361C1081.3 29.0253 950.746 143.082 899.777 212.903C842.333 293.629 775.281 259.789 748.935 232.779C622.064 111.281 499.772 61.88 454.485 52.3668Z" fill="#FFF2F6"/>
<path d="M476.038 6.91782C269.602 -47.0315 35.3312 281.16 -56 452H1530L1551.5 390.5C1449.88 257.875 1345.3 131.863 1293.46 94.0235C1167.23 -18.8206 1023.27 106.949 967.062 183.939C903.719 272.955 829.78 235.641 800.729 205.856C660.827 71.8817 525.976 17.4079 476.038 6.91782Z" stroke="#FEDDE8"/>
</svg>
