<svg width="157" height="157" viewBox="0 0 157 157" fill="none" xmlns="http://www.w3.org/2000/svg">
<path d="M0 95.1089C0 94.76 0.282723 94.4773 0.63168 94.4773H1.81746C2.72634 94.4773 4.54441 94.2749 4.54441 91.8457V69.9813C4.54441 68.6652 4.45334 65.5273 2.18113 65.5273H0.961932C0.532328 65.5273 0.228141 65.1078 0.361529 64.6994L2.31207 58.7224C2.39701 58.4623 2.63926 58.2866 2.91247 58.2866H141.646C141.995 58.2866 142.278 58.5693 142.278 58.9183V64.8953C142.278 65.2443 141.995 65.527 141.646 65.527H13.6335C12.4521 65.527 10.9072 65.8306 10.9072 68.4622V75.3457C11.1798 76.1552 12.2705 76.4588 12.8157 76.4588C13.3272 76.4588 15.0364 76.3701 15.248 73.6064C15.2732 73.2761 15.5402 73.0173 15.8714 73.0173H17.3651C17.714 73.0173 17.9967 73.3001 17.9967 73.649V83.6213C17.9967 83.9702 17.714 84.2529 17.3651 84.2529H15.8193C15.5249 84.2529 15.2753 84.0496 15.2054 83.7632C14.9634 82.7707 14.0635 81.5257 12.9068 81.4184C11.8161 81.3169 10.9072 81.7219 10.9072 83.3416V91.8445C10.9072 92.7555 11.9072 94.476 14.2701 94.476H15.2744C15.6233 94.476 15.9061 94.7588 15.9061 95.1077V99.0324C15.9061 99.3814 15.6233 99.6641 15.2744 99.6641H0.63168C0.282723 99.6641 0 99.3814 0 99.0324V95.1089Z" fill="#C1C1C1"/>
<path d="M92.7784 73.8281V84.9635H86.4163V79.5868C86.4163 79.5868 86.1446 77.663 85.2348 77.5621C85.1685 77.5557 85.0959 77.559 85.0167 77.5747C83.9996 77.7611 81.9178 79.6595 81.3269 80.5978V92.7568C81.3269 94.3583 82.5274 94.9112 83.2192 95.0977C83.4973 95.1703 83.6899 95.4199 83.6899 95.7072V99.0337C83.6899 99.3826 83.4072 99.6654 83.0582 99.6654H73.2338C72.8863 99.6654 72.6021 99.3811 72.6021 99.0337V95.6714C72.6021 95.3561 72.8351 95.0937 73.147 95.0471C74.054 94.9118 74.8884 94.378 74.9651 92.8582V75.7523C74.9651 75.4996 74.7851 75.0164 74.3965 74.5993C74.0936 74.2718 73.6637 73.983 73.0964 73.8744C72.806 73.8189 72.6024 73.5546 72.6024 73.259V71.4247C72.6024 71.0757 72.8851 70.793 73.2341 70.793H80.1743C80.4493 70.793 80.6808 70.9751 80.7759 71.2336C81.0126 71.8776 81.6992 72.4473 82.1457 72.6126C82.7838 72.1073 86.1449 69.9813 88.7795 69.9813C91.417 69.9804 92.7784 71.4998 92.7784 73.8281Z" fill="#C1C1C1"/>
<path d="M156.782 71.424V73.2657C156.782 73.5625 156.573 73.8185 156.28 73.8817C155.288 74.0933 154.419 74.9114 154.419 75.954V92.7564C154.419 93.9664 155.351 94.8823 156.302 95.1224C156.583 95.1951 156.782 95.4447 156.782 95.7354V99.0333C156.782 99.3822 156.499 99.665 156.15 99.665H146.326C145.977 99.665 145.694 99.3822 145.694 99.0333V95.5676C145.694 95.2947 145.868 95.0543 146.127 94.9688C146.331 94.9016 146.585 94.8007 146.841 94.6551C147.422 94.3267 148.013 93.7707 148.057 92.8575V75.7519C148.057 75.4992 147.877 75.016 147.488 74.5989C147.185 74.2714 146.755 73.9826 146.188 73.874C145.898 73.8185 145.694 73.5542 145.694 73.2586V71.4243C145.694 71.0753 145.977 70.7926 146.326 70.7926H156.15C156.499 70.7923 156.782 71.0753 156.782 71.424Z" fill="#C1C1C1"/>
<path d="M68.2398 73.828V84.3317C68.2398 84.6806 67.9571 84.9634 67.6081 84.9634H62.5096C62.1606 84.9634 61.8779 84.6806 61.8779 84.3317V79.587C61.8779 79.587 61.6062 77.6632 60.6964 77.5623C60.6333 77.5558 60.5606 77.5592 60.4815 77.5749C59.5214 77.7472 57.619 79.4383 56.9082 80.4217C56.83 80.53 56.7889 80.6591 56.7889 80.7924V92.7566C56.7889 93.4674 57.1078 94.074 57.5629 94.5036C57.8855 94.8081 58.2746 95.0239 58.6686 95.1233C58.9513 95.1951 59.1519 95.4437 59.1519 95.7354V99.0333C59.1519 99.3822 58.8692 99.665 58.5202 99.665H48.6958C48.3468 99.665 48.0641 99.3822 48.0641 99.0333V95.671C48.0641 95.3557 48.2971 95.0932 48.6093 95.0466C48.9726 94.9927 49.3237 94.8746 49.6215 94.6551C50.0637 94.3266 50.3795 93.7707 50.427 92.8575V75.7519C50.427 75.4992 50.2437 75.0159 49.8585 74.5989C49.5571 74.2757 49.1364 73.9905 48.5814 73.8783C48.2833 73.8182 48.0644 73.5628 48.0644 73.2586V71.4243C48.0644 71.0753 48.3471 70.7926 48.6961 70.7926H55.6335C55.9086 70.7926 56.1398 70.9744 56.2348 71.2326C56.4722 71.8769 57.1609 72.4466 57.6073 72.6119C58.2424 72.1065 61.6065 69.9806 64.2412 69.9806C66.8749 69.9803 68.2398 71.4997 68.2398 73.828Z" fill="#C1C1C1"/>
<path d="M141.97 73.828V84.9634H135.608V79.5867C135.608 79.5867 135.333 77.6629 134.426 77.562C134.353 77.5525 134.268 77.5589 134.176 77.581C134.173 77.5779 134.17 77.581 134.167 77.581C133.131 77.8116 131.1 79.6723 130.515 80.5977V92.7566C130.515 93.5938 130.809 94.1436 131.188 94.5036C131.567 94.8636 132.031 95.0344 132.379 95.1132C132.67 95.1828 132.878 95.4321 132.878 95.7323V99.0333C132.878 99.3807 132.597 99.665 132.246 99.665H122.422C122.075 99.665 121.79 99.3807 121.79 99.0333V95.6688C121.79 95.356 122.024 95.0939 122.337 95.0466C123.243 94.9108 124.077 94.3769 124.153 92.8575V75.7519C124.153 75.0822 123.863 74.6461 123.49 74.3619C123.111 74.0776 122.65 73.9448 122.302 73.8817C122.006 73.828 121.791 73.5628 121.791 73.2595V71.4243C121.791 71.0738 122.075 70.7926 122.422 70.7926H129.343C129.637 70.7926 129.89 70.9947 129.96 71.2789C130.089 71.8192 130.437 72.6119 131.334 72.6119C131.972 72.1065 135.333 69.9806 137.97 69.9806C140.605 69.9803 141.97 71.4997 141.97 73.828Z" fill="#C1C1C1"/>
<path d="M37.5328 89.6182C37.1839 89.6182 36.9011 89.9009 36.9011 90.2499V90.6326V91.2885C36.9011 92.4016 36.7196 93.0112 33.72 93.0112C30.7205 93.0112 29.8119 90.7844 29.8119 89.1644V87.0848V86.1762C29.8119 85.6702 30.1756 85.8702 30.8119 85.8702H42.6316C42.9806 85.8702 43.2633 85.5874 43.2633 85.2385V77.5725C43.2633 74.2322 42.627 73.2197 41.3548 71.803C40.0822 70.3857 35.6289 69.981 33.6293 69.981C28.5397 69.981 26.9034 70.7908 25.4496 72.1066C23.9952 73.4227 23.45 76.1555 23.45 78.1802V89.6185C23.45 92.6552 24.1004 94.8253 25.7235 96.8378C27.9843 99.6408 32.7207 99.6402 33.8114 99.6402C34.9018 99.6402 38.5377 99.7416 41.1732 97.6157C43.2915 95.9074 43.355 91.7791 43.2986 90.2248C43.2863 89.8859 43.0063 89.6188 42.6672 89.6188L37.5328 89.6182ZM29.8116 77.7715C29.8116 76.7629 30.266 75.2497 33.4471 75.2497C36.6282 75.2497 36.9008 76.889 36.9008 77.7715V80.0412C36.9008 80.4193 36.4464 80.7977 35.8104 80.7977H30.902C30.3565 80.7977 29.8116 80.4825 29.8116 80.1041V77.7715Z" fill="#C1C1C1"/>
<path d="M116.156 92.7559V77.5723C116.156 75.2443 116.066 72.8148 113.884 71.0939C111.703 69.3734 108.158 69.4743 106.795 69.4743C105.432 69.4743 100.888 69.4743 98.7965 72.1058C96.7062 74.7377 97.0698 77.2681 97.0698 78.2804H103.567C103.567 78.2804 103.432 77.1991 104.25 76.2881C105.073 75.3713 107.25 74.3649 108.931 75.9845C109.55 76.5816 109.794 77.3512 109.794 78.2117V80.2036C109.794 80.6087 109.43 81.2158 108.976 81.2158C108.976 81.2158 100.705 81.4185 99.251 82.6331C97.7966 83.8477 96.5243 84.6573 96.5243 89.1115C96.5243 93.5655 97.524 96.8303 98.7055 97.7416C99.887 98.6526 100.432 99.6649 105.795 99.6649H118.519V95.1855C117.429 95.1855 116.156 94.1732 116.156 92.7559ZM109.794 92.7523C109.794 92.8906 109.43 93.0847 109.158 93.0847H106.022C103.795 93.0847 103.159 91.921 103.159 91.2007V89.0674C103.159 86.9893 106.704 87.0451 108.112 87.0451C109.521 87.0451 109.794 87.7654 109.794 88.2364V92.7523H109.794Z" fill="#C1C1C1"/>
<path d="M151.239 65.4767C154.421 65.4767 157 63.654 157 61.406C157 59.1578 154.421 57.3351 151.239 57.3351C148.058 57.3351 145.479 59.1578 145.479 61.406C145.479 63.654 148.058 65.4767 151.239 65.4767Z" fill="#C1C1C1"/>
<path d="M15.9054 95.1098V99.0333C15.9054 99.3807 15.6242 99.665 15.2738 99.665H12.4306V94.0452C12.9138 94.3073 13.5234 94.4778 14.2692 94.4778H15.2738C15.6242 94.4781 15.9054 94.759 15.9054 95.1098Z" fill="#C1C1C1"/>
<path d="M14.5213 75.7206V82.4087C14.8576 82.8309 15.0984 83.3268 15.206 83.7711C15.2747 84.0544 15.5261 84.2528 15.8174 84.2528H17.3641C17.7131 84.2528 17.9958 83.9701 17.9958 83.6211V73.6489C17.9958 73.2999 17.7131 73.0172 17.3641 73.0172H15.8778C15.5513 73.0172 15.2731 73.2662 15.2489 73.5919C15.171 74.635 14.8806 75.298 14.5213 75.7206Z" fill="#C1C1C1"/>
<path d="M138.803 58.2866V65.5273H141.646C141.995 65.5273 142.278 65.2446 142.278 64.8956V58.9186C142.278 58.5697 141.995 58.2869 141.646 58.2869H138.803V58.2866Z" fill="#C1C1C1"/>
<path d="M88.7804 69.981C88.2119 69.981 87.6093 70.0837 87.0077 70.2441C88.5253 70.773 89.3048 72.0683 89.3048 73.8275V84.9622H92.7796V73.8275C92.7793 71.4991 91.4163 69.981 88.7804 69.981Z" fill="#C1C1C1"/>
<path d="M154.419 75.954V92.7564C154.419 93.9664 155.351 94.8824 156.302 95.1225C156.583 95.1951 156.782 95.4447 156.782 95.7354V99.0333C156.782 99.3808 156.501 99.665 156.15 99.665H153.307V95.1856C152.217 95.1856 150.944 94.1746 150.944 92.7564V75.954C150.944 74.9115 151.813 74.0933 152.805 73.8818C153.099 73.8186 153.307 73.5629 153.307 73.2657V70.7924H156.15C156.501 70.7924 156.782 71.0735 156.782 71.424V73.2657C156.782 73.5625 156.573 73.8186 156.28 73.8818C155.288 74.0933 154.419 74.9115 154.419 75.954Z" fill="#C1C1C1"/>
<path d="M56.9079 80.4215C56.8297 80.5297 56.7886 80.6588 56.7886 80.7922V92.7564C56.7886 93.4672 57.1075 94.0737 57.5626 94.5033C57.8852 94.8078 58.2743 95.0237 58.6683 95.123C58.951 95.1948 59.1516 95.4435 59.1516 95.7351V99.033C59.1516 99.382 58.8689 99.6647 58.5199 99.6647H55.6767V95.1853C54.5869 95.1853 53.3138 94.1743 53.3138 92.7561V83.1196C53.3138 79.5 58.9575 77.6378 60.4941 77.5583C60.4876 77.5614 60.4846 77.5679 60.4815 77.5743C59.5214 77.7469 57.6187 79.4381 56.9079 80.4215Z" fill="#C1C1C1"/>
<path d="M81.3272 80.5973V92.7563C81.3272 94.3578 82.5277 94.9107 83.2195 95.0971C83.4976 95.1698 83.6902 95.4194 83.6902 95.7068V99.0332C83.6902 99.3821 83.4074 99.6649 83.0585 99.6649H80.2123V95.7353C80.2123 95.4436 80.0117 95.1947 79.729 95.1232C78.7787 94.8825 77.8493 93.9684 77.8493 92.7566V83.1185C77.8493 79.5014 83.4912 77.6376 85.0296 77.5588C85.0231 77.5619 85.0201 77.5683 85.017 77.5748C83.9996 77.7606 81.9181 79.6593 81.3272 80.5973Z" fill="#C1C1C1"/>
<path d="M134.205 77.5587C134.198 77.5618 134.195 77.5682 134.192 77.5747C134.186 77.5747 134.183 77.5777 134.176 77.5811C134.173 77.578 134.17 77.5811 134.167 77.5811C133.131 77.8117 131.1 79.6724 130.515 80.5978V92.7568C130.515 93.5939 130.809 94.1437 131.188 94.5037C131.567 94.8637 132.031 95.0345 132.379 95.1133C132.67 95.1829 132.878 95.4322 132.878 95.7324V99.0334C132.878 99.3808 132.597 99.6651 132.246 99.6651H129.388V95.7355C129.388 95.4448 129.186 95.1952 128.904 95.1225C127.953 94.8824 127.025 93.9695 127.025 92.7564V83.1184C127.025 79.5016 132.667 77.6378 134.205 77.5587Z" fill="#C1C1C1"/>
<path d="M64.2406 69.981C63.6721 69.981 63.0695 70.0837 62.4679 70.2441C63.9854 70.773 64.7649 72.0683 64.7649 73.8275V84.9622H67.6081C67.9571 84.9622 68.2398 84.6795 68.2398 84.3305V73.8278C68.2398 71.4991 66.8761 69.981 64.2406 69.981Z" fill="#C1C1C1"/>
<path d="M137.97 69.981C137.401 69.981 136.798 70.0837 136.197 70.2441C137.714 70.773 138.494 72.0683 138.494 73.8275V84.9622H141.969V73.8275C141.969 71.4991 140.605 69.981 137.97 69.981Z" fill="#C1C1C1"/>
<path d="M37.8796 71.7861C39.1522 73.2028 39.7881 74.2153 39.7881 77.5555V85.8535H42.6313C42.9803 85.8535 43.263 85.5708 43.263 85.2219V77.5559C43.263 74.2156 42.6267 73.2031 41.3545 71.7864C40.0819 70.3691 35.6286 69.9644 33.629 69.9644C32.8759 69.9644 32.1997 69.9828 31.5873 70.0171C33.7933 70.1643 36.8594 70.6491 37.8796 71.7861Z" fill="#C1C1C1"/>
<path d="M42.6666 89.6179H39.7881C39.7881 89.6179 40.3337 95.4895 37.6975 97.6151C35.9607 99.0158 33.7936 99.4476 32.2028 99.5807C32.9304 99.6395 33.5097 99.6399 33.8105 99.6399C34.9009 99.6399 38.5367 99.741 41.1723 97.6154C43.2906 95.9071 43.3541 91.7788 43.2976 90.2242C43.286 89.885 43.006 89.6179 42.6666 89.6179Z" fill="#C1C1C1"/>
<path d="M116.156 92.7559V77.5723C116.156 75.2443 116.066 72.8148 113.884 71.0939C111.703 69.3734 108.158 69.4743 106.795 69.4743C106.459 69.4743 105.929 69.4743 105.291 69.5138C106.906 69.6119 108.958 69.9489 110.41 71.0936C112.591 72.8145 112.682 75.244 112.682 77.572V92.7556C112.682 94.1726 113.954 95.1848 115.045 95.1848V99.6643H118.52V95.1848C117.429 95.1855 116.156 94.1732 116.156 92.7559Z" fill="#C1C1C1"/>
<path d="M151.239 57.3351C150.634 57.3351 150.05 57.4016 149.502 57.5246C151.834 58.0453 153.525 59.5858 153.525 61.406C153.525 63.226 151.834 64.7665 149.502 65.2875C150.05 65.4102 150.634 65.4767 151.239 65.4767C154.421 65.4767 157 63.654 157 61.406C157 59.1578 154.421 57.3351 151.239 57.3351Z" fill="#C1C1C1"/>
</svg>
