<svg width="42" height="43" viewBox="0 0 42 43" fill="none" xmlns="http://www.w3.org/2000/svg">
<path d="M35.6154 17L39.6846 14.355C40.2978 13.9564 40.2898 13.0561 39.6697 12.6685L21.53 1.33125C21.2057 1.12858 20.7943 1.12858 20.47 1.33125L2.33034 12.6685C1.71023 13.0561 1.70222 13.9564 2.31535 14.355L6.38462 17M35.6154 17L21.545 26.1458C21.2136 26.3612 20.7864 26.3612 20.455 26.1458L6.38462 17M35.6154 17L39.8457 20.1425C40.405 20.558 40.3786 21.4039 39.7943 21.7837L21.545 33.6458C21.2136 33.8612 20.7864 33.8612 20.455 33.6458L2.20567 21.7837C1.62142 21.4039 1.59496 20.558 2.15433 20.1425L6.38462 17M6.38462 25L2.15433 28.1425C1.59496 28.558 1.62142 29.4039 2.20567 29.7837L20.455 41.6458C20.7864 41.8612 21.2136 41.8612 21.545 41.6458L39.7943 29.7837C40.3786 29.4039 40.405 28.558 39.8457 28.1425L35.6154 25" stroke="#F78CB6" stroke-width="2"/>
</svg>
