<svg width="50" height="43" viewBox="0 0 50 43" fill="none" xmlns="http://www.w3.org/2000/svg">
<path d="M34 7.87499V6.57809C34 6.44303 33.9868 6.31015 33.9584 6.1781C33.7984 5.43256 33.21 2.80336 32.7817 2.37506C32.2817 1.87503 18.2817 1.87503 17.7818 2.37506C17.3567 2.80018 16.7279 5.3936 16.5491 6.16116C16.5158 6.30399 16.5 6.44898 16.5 6.59563V7.87499M34 7.87499C34 7.87499 43 7.87499 45.5 7.87499C48 7.87499 48 10.8749 48 10.875C48 10.875 48 10.875 48 10.875V27.375M34 7.87499H16.5M16.5 7.87499C16.5 7.87499 7 7.87499 4.5 7.87499C2.37415 7.87499 2.41753 10.0442 2.47814 10.6935C2.4895 10.8153 2.49888 10.9365 2.49666 11.0588L2.19091 27.875M2.19091 27.875C2.19091 27.875 2 35.875 2 38.375C2 40.5244 4.21775 41.1955 4.83962 41.3414C4.94688 41.3665 5.05537 41.375 5.16554 41.375H44.8345C44.9446 41.375 45.0531 41.3665 45.1607 41.3427C45.7829 41.2051 48 40.5943 48 38.875C48 36.875 48 27.375 48 27.375M2.19091 27.875L4.47926 29.5042C4.81798 29.7454 5.22344 29.875 5.63924 29.875H18.5M18.5 29.875V28.375C18.5 27.2704 19.3954 26.375 20.5 26.375H29.5C30.6046 26.375 31.5 27.2704 31.5 28.375V29.875M18.5 29.875V31.875C18.5 32.9796 19.3954 33.875 20.5 33.875H29.5C30.6046 33.875 31.5 32.9796 31.5 31.875V29.875M31.5 29.875H44.6716C45.202 29.875 45.7107 29.6643 46.0858 29.2892L48 27.375" stroke="white" stroke-width="3"/>
</svg>
