<svg width="14" height="14" viewBox="0 0 14 14" fill="none" xmlns="http://www.w3.org/2000/svg">
<path d="M7 0.5C3.416 0.5 0.5 3.416 0.5 7C0.5 10.584 3.416 13.5 7 13.5C10.584 13.5 13.5 10.584 13.5 7C13.5 3.416 10.584 0.5 7 0.5ZM7 1.5C10.043 1.5 12.5 3.957 12.5 7C12.5 10.043 10.043 12.5 7 12.5C3.957 12.5 1.5 10.043 1.5 7C1.5 3.957 3.957 1.5 7 1.5ZM6.953 4C5.291 4 3.953 5.338 3.953 7C3.953 8.662 5.291 10 6.953 10C8.1525 10 9.178 9.281 9.656 8.2655L8.75 7.844C8.4275 8.529 7.754 9 6.953 9C5.8145 9 4.953 8.1385 4.953 7C4.953 5.8615 5.8145 5 6.953 5C7.754 5 8.428 5.4705 8.75 6.1565L9.6565 5.7345C9.1775 4.719 8.1525 4 6.9525 4H6.953Z" fill="white"/>
</svg>
