<svg width="46" height="32" viewBox="0 0 46 32" fill="none" xmlns="http://www.w3.org/2000/svg">
<path d="M1 15.1579C0.447715 15.1579 0 15.6056 0 16.1579C0 16.7102 0.447715 17.1579 1 17.1579V15.1579ZM30 16.1579L30.6864 16.8852C30.8932 16.69 31.0071 16.416 30.9997 16.1317C30.9922 15.8475 30.8641 15.5798 30.6474 15.3957L30 16.1579ZM22.0636 22.2727C21.662 22.6518 21.6437 23.2847 22.0227 23.6864C22.4018 24.088 23.0347 24.1063 23.4364 23.7273L22.0636 22.2727ZM23.3974 9.23782C22.9764 8.88029 22.3454 8.93169 21.9878 9.35263C21.6303 9.77357 21.6817 10.4046 22.1026 10.7622L23.3974 9.23782ZM1 17.1579H30V15.1579H1V17.1579ZM29.3136 15.4306L22.0636 22.2727L23.4364 23.7273L30.6864 16.8852L29.3136 15.4306ZM30.6474 15.3957L23.3974 9.23782L22.1026 10.7622L29.3526 16.9201L30.6474 15.3957Z" fill="white"/>
<rect x="14.75" y="0.75" width="30.5" height="30.5" rx="1.25" fill="#FFC1DA" fill-opacity="0.28" stroke="white" stroke-width="1.5"/>
</svg>
